<mxfile host="www.draw.io" modified="2020-01-23T16:10:34.245Z" agent="Mozilla/5.0 (X11; Ubuntu; Linux x86_64; rv:72.0) Gecko/20100101 Firefox/72.0" etag="Ivt7ddutwFDatnWOK0FP" version="12.5.6" type="github">
  <diagram id="mX-68v0Wq5qoGrVtnkYc" name="Page-1">
    <mxGraphModel dx="1582" dy="362" grid="1" gridSize="10" guides="1" tooltips="1" connect="1" arrows="1" fold="1" page="1" pageScale="1" pageWidth="827" pageHeight="1169" math="0" shadow="0">
      <root>
        <mxCell id="0"/>
        <mxCell id="1" parent="0"/>
        <mxCell id="KcBMM4nF71oEwstSc_pH-2" value="&lt;div&gt;Movie&lt;/div&gt;" style="rounded=0;whiteSpace=wrap;html=1;fillColor=#d5e8d4;strokeColor=#82b366;" parent="1" vertex="1">
          <mxGeometry x="-610" y="50" width="200" height="30" as="geometry"/>
        </mxCell>
        <mxCell id="KcBMM4nF71oEwstSc_pH-5" value="MovieDetailEditView" style="rounded=0;whiteSpace=wrap;html=1;fillColor=#f8cecc;strokeColor=#b85450;" parent="1" vertex="1">
          <mxGeometry x="-240" y="50" width="150" height="30" as="geometry"/>
        </mxCell>
        <mxCell id="KcBMM4nF71oEwstSc_pH-6" value="MovieDetailEdit" style="rounded=0;whiteSpace=wrap;html=1;fillColor=#f8cecc;strokeColor=#b85450;" parent="1" vertex="1">
          <mxGeometry x="-400" y="50" width="120" height="30" as="geometry"/>
        </mxCell>
        <mxCell id="KcBMM4nF71oEwstSc_pH-8" value="Date" style="rounded=0;whiteSpace=wrap;html=1;fillColor=#dae8fc;strokeColor=#6c8ebf;" parent="1" vertex="1">
          <mxGeometry x="-790" y="50" width="120" height="30" as="geometry"/>
        </mxCell>
        <mxCell id="KcBMM4nF71oEwstSc_pH-13" value="" style="rounded=0;whiteSpace=wrap;html=1;fillColor=#dae8fc;strokeColor=#6c8ebf;" parent="1" vertex="1">
          <mxGeometry x="-790" y="80" width="120" height="60" as="geometry"/>
        </mxCell>
        <mxCell id="KcBMM4nF71oEwstSc_pH-15" value="&lt;div align=&quot;left&quot;&gt;- &lt;ins&gt;TRAITS: Traits {readOnly}&lt;/ins&gt;&lt;br&gt;- watchDate: Date&lt;/div&gt;&lt;div align=&quot;left&quot;&gt;- dueDate: Date&lt;br&gt;&lt;/div&gt;&lt;div align=&quot;left&quot;&gt;- description: String&lt;br&gt;- languages: List&amp;lt;String&amp;gt;&lt;br&gt;- releases: List&amp;lt;Pair&amp;lt;String, Date&amp;gt;&amp;gt;&lt;br&gt;- productionLocations: List&amp;lt;String&amp;gt;&lt;br&gt;- filmingLocations: List&amp;lt;String&amp;gt;&lt;br&gt;- runtime: int&lt;br&gt;+ &lt;ins&gt;CREATOR: Creator&amp;lt;Movie&amp;gt; {readOnly}&lt;/ins&gt;&lt;/div&gt;" style="whiteSpace=wrap;html=1;aspect=fixed;fillColor=#d5e8d4;strokeColor=#82b366;align=left;" parent="1" vertex="1">
          <mxGeometry x="-610" y="80" width="200" height="200" as="geometry"/>
        </mxCell>
        <mxCell id="KcBMM4nF71oEwstSc_pH-16" value="&lt;div style=&quot;font-size: 8px&quot; align=&quot;left&quot;&gt;- showImage: ImageView&lt;br&gt;- showWatchDate: DateSelectionView&lt;br&gt;- showRuntime: TextView&lt;br&gt;- showRating: CustomRatingBar&lt;br&gt;- overallRatingTitle: TextView&lt;br&gt;- showOverallRating: CustomRatingBar&lt;br&gt;- showDescription: TextView&lt;br&gt;- showLinkedPerformers: RecyclerView&lt;br&gt;- linkedPerformers: List&amp;lt;Performer&amp;gt;&lt;br&gt;- adapter: LinkedDataAdapter&lt;br&gt;- showLanguages: TextView&lt;br&gt;- releaseList: RecyclerView&lt;br&gt;- releases: List&amp;lt;Map&amp;lt;String, ?&amp;gt;&amp;gt;&lt;br&gt;- releaseAdapter: SimpleRecyclerViewAdapter&lt;br&gt;- showProductionLocations: TextView&lt;br&gt;- showFilmingLocations: TextView&lt;/div&gt;" style="rounded=0;whiteSpace=wrap;html=1;fillColor=#f8cecc;strokeColor=#b85450;align=left;" parent="1" vertex="1">
          <mxGeometry x="-400" y="80" width="120" height="230" as="geometry"/>
        </mxCell>
        <mxCell id="KcBMM4nF71oEwstSc_pH-17" value="" style="rounded=0;whiteSpace=wrap;html=1;fillColor=#f8cecc;strokeColor=#b85450;" parent="1" vertex="1">
          <mxGeometry x="-240" y="80" width="150" height="80" as="geometry"/>
        </mxCell>
        <mxCell id="KcBMM4nF71oEwstSc_pH-19" value="" style="endArrow=classic;html=1;entryX=1.004;entryY=0.27;entryDx=0;entryDy=0;entryPerimeter=0;exitX=0.002;exitY=0.095;exitDx=0;exitDy=0;exitPerimeter=0;" parent="1" source="KcBMM4nF71oEwstSc_pH-15" target="KcBMM4nF71oEwstSc_pH-13" edge="1">
          <mxGeometry width="50" height="50" relative="1" as="geometry">
            <mxPoint x="-622" y="96" as="sourcePoint"/>
            <mxPoint x="-740" y="270" as="targetPoint"/>
          </mxGeometry>
        </mxCell>
        <mxCell id="KcBMM4nF71oEwstSc_pH-20" value="&lt;div style=&quot;font-size: 10px;&quot;&gt;Uses&lt;/div&gt;" style="text;html=1;align=center;verticalAlign=middle;resizable=0;points=[];labelBackgroundColor=#ffffff;fontSize=10;" parent="KcBMM4nF71oEwstSc_pH-19" vertex="1" connectable="0">
          <mxGeometry x="-0.1243" relative="1" as="geometry">
            <mxPoint as="offset"/>
          </mxGeometry>
        </mxCell>
        <mxCell id="KcBMM4nF71oEwstSc_pH-25" value="&lt;div align=&quot;left&quot;&gt;+ Movie(id: int)&lt;br&gt;- Movie(in: Parcel)&lt;br&gt;- readFromParcel(in: Parcel): void&lt;br&gt;+ getTitle(): String&lt;br&gt;+ setTitle(title: String): void&lt;br&gt;+ getDescription(): String&lt;br&gt;+ setDescription(description: String): void&lt;br&gt;+ getLanguages(): List&amp;lt;String&amp;gt;&lt;br&gt;+ setLanguages(languages: List&amp;lt;String&amp;gt;): void&lt;br&gt;+ getReleases(): List&amp;lt;Pair&amp;lt;String, Date&amp;gt;&amp;gt;&lt;br&gt;+ setReleases(releases: List&amp;lt;Pair&amp;lt;String, Date&amp;gt;&amp;gt;): void&lt;br&gt;+ getWatchDate(): Date&lt;br&gt;+ setWatchDate(watchDate: Date): void&lt;/div&gt;&lt;div align=&quot;left&quot;&gt;+ getDueDate(): Date&lt;br&gt;&lt;/div&gt;&lt;div align=&quot;left&quot;&gt;+ setDueDate(dueDate: Date): void&lt;br&gt;&lt;/div&gt;&lt;div align=&quot;left&quot;&gt;+ getRuntime(): int&lt;br&gt;+ setRuntime(runtime: int): void&lt;br&gt;+ getProductionLocations(): List&amp;lt;String&amp;gt;&lt;br&gt;+ setProductionLocations(productionLocations: List&amp;lt;String&amp;gt;): void&lt;br&gt;+ getFilmingLocations(): List&amp;lt;String&amp;gt;&lt;br&gt;+ setFilmingLocations(filmingLocations: List&amp;lt;String&amp;gt;): void&lt;br&gt;^+ equals(obj: Object): boolean&lt;br&gt;^+ hashCode(): int&lt;div&gt;^+ writeToParcel(dest: Parcel, flags: int): void&lt;/div&gt;&lt;/div&gt;" style="rounded=0;whiteSpace=wrap;html=1;fontSize=10;fillColor=#d5e8d4;strokeColor=#82b366;align=left;" parent="1" vertex="1">
          <mxGeometry x="-610" y="260" width="200" height="350" as="geometry"/>
        </mxCell>
        <mxCell id="1U4HqfRGkfYe_hDsYgeS-1" value="&lt;div style=&quot;font-size: 6px&quot; align=&quot;left&quot;&gt;&lt;font style=&quot;font-size: 6px&quot;&gt;+ MovieDetailActivity()&lt;br&gt;^# bindViews(): void&lt;br&gt;^# setupLists(): void&lt;br&gt;- setupLinkedPerformersList(): void&lt;br&gt;- getSortedLinkedPerformers(): List&amp;lt;Performer&amp;gt;&lt;br&gt;- setupReleaseList(): void&lt;br&gt;- getSortedReleases(): List&amp;lt;Map&amp;lt;String, ?&amp;gt;&amp;gt;&lt;br&gt;^# updateAfterLinkedDetails(result: Intent {readOnly}): void&lt;br&gt;^# updateAfterEdit(result: Intent): void&lt;br&gt;^# updateUIWithModelData(): void&lt;br&gt;- updateOverallRating(): void&lt;br&gt;^# setListeners(): void&lt;br&gt;+ onCreateOptionsMenu(menu: Menu): boolean&lt;br&gt;+ &lt;ins&gt;showAndNotifyIfOk(source: ResultHandlinActivity {readOnly}, movie: Movie {readOnly}, handler: ResultHandler {readOnly}): void&lt;/ins&gt;&lt;br&gt;+ &lt;ins&gt;showAndNotify(source: ResultHandlingActivity {readOnly}, movie: Movie {readOnly}, handler: ResultHandler {readOnly}): void&lt;/ins&gt;&lt;/font&gt;&lt;/div&gt;" style="rounded=0;whiteSpace=wrap;html=1;fontSize=10;fillColor=#f8cecc;strokeColor=#b85450;align=left;" vertex="1" parent="1">
          <mxGeometry x="-400" y="310" width="120" height="190" as="geometry"/>
        </mxCell>
      </root>
    </mxGraphModel>
  </diagram>
</mxfile>
